<?xml version="1.0" encoding="UTF-8" standalone="no"?>
<!DOCTYPE svg PUBLIC "-//W3C//DTD SVG 1.1//EN" "http://www.w3.org/Graphics/SVG/1.1/DTD/svg11.dtd">
<svg width="50" height="50" viewBox="0 0 512 512" version="1.1" xmlns="http://www.w3.org/2000/svg" xmlns:xlink="http://www.w3.org/1999/xlink" xml:space="preserve" xmlns:serif="http://www.serif.com/" style="fill-rule:evenodd;clip-rule:evenodd;stroke-linejoin:round;stroke-miterlimit:2;">
    <g>
        <path d="M389.3,338.7C372.6,322.2 351.7,322.2 335.1,338.7C322.4,351.3 309.7,363.8 297.3,376.6C293.9,380.1 291,380.9 286.9,378.5C278.7,374 270,370.4 262.1,365.5C225.3,342.4 194.6,312.7 167.3,279.2C153.8,262.6 141.7,244.8 133.3,224.8C131.6,220.8 131.9,218.1 135.2,214.8C147.9,202.5 160.2,190 172.7,177.4C190.1,159.9 190.1,139.5 172.6,121.9C162.7,111.9 152.8,102.1 142.9,92.1C132.7,81.9 122.6,71.5 112.2,61.4C95.5,45.1 74.6,45.1 58,61.5C45,74 32.8,86.9 19.8,99.3C7.7,110.7 1.7,124.7 0.4,141C-1.6,167.5 4.9,192.6 14,217C32.8,267.5 61.3,312.4 95.9,353.5C142.7,409 198.5,453 263.9,484.8C293.3,499.1 323.8,510.1 356.9,511.9C379.7,513.2 399.5,507.4 415.4,489.6C426.3,477.5 438.5,466.4 450,454.8C467,437.5 467.2,416.7 450.2,399.6C430,379.2 409.6,358.9 389.3,338.7Z" style="fill:rgb(5,156,64);fill-rule:nonzero;"/>
        <path d="M368.9,253.8L408.2,247.1C402,211 385,178.3 359.1,152.3C331.7,124.9 297.1,107.7 259,102.3L253.5,141.8C283,146 309.9,159.3 331.1,180.5C351,200.5 364.1,225.9 368.9,253.8Z" style="fill:rgb(5,156,64);fill-rule:nonzero;"/>
        <path d="M430.4,82.9C385,37.5 327.6,8.8 264.2,0L258.7,39.5C313.4,47.2 363,72 402.3,111.1C439.5,148.3 463.9,195.3 472.7,246.9L512,240.2C501.7,180.4 473.4,126 430.4,82.9Z" style="fill:rgb(5,156,64);fill-rule:nonzero;"/>
    </g>
</svg>
